<svg width="31" height="31" viewBox="0 0 31 31" fill="none" xmlns="http://www.w3.org/2000/svg">
<path d="M30.2 15.8593C30.2 14.8467 30.102 13.8014 29.9387 12.8214H15.794V18.6033H23.8953C23.5687 20.4653 22.4907 22.0987 20.89 23.144L25.7247 26.9007C28.5667 24.2547 30.2 20.4 30.2 15.8593Z" fill="#4280EF"/>
<path d="M15.794 30.494C19.8447 30.494 23.242 29.1547 25.7247 26.868L20.89 23.144C19.5507 24.0587 17.8193 24.5813 15.794 24.5813C11.874 24.5813 8.57466 21.9353 7.366 18.4073L2.40067 22.2293C4.94867 27.2927 10.11 30.494 15.794 30.494Z" fill="#34A353"/>
<path d="M7.366 18.3747C6.74533 16.5127 6.74533 14.4874 7.366 12.6254L2.40067 8.77069C0.277333 13.0174 0.277333 18.0154 2.40067 22.2294L7.366 18.3747Z" fill="#F6B704"/>
<path d="M15.794 6.45133C17.9173 6.41867 20.008 7.23534 21.5433 8.70534L25.8227 4.39334C23.1113 1.84534 19.518 0.473336 15.794 0.506002C10.11 0.506002 4.94867 3.70734 2.40067 8.77067L7.366 12.6253C8.57466 9.06467 11.874 6.45133 15.794 6.45133Z" fill="#E54335"/>
</svg>
