<svg width="107" height="101" viewBox="0 0 107 101" fill="none" xmlns="http://www.w3.org/2000/svg">
<path d="M17.1383 90.955C20.4323 93.1422 23.8288 93.953 27.2914 94.5248C30.2363 95.011 32.4081 96.5556 34.1904 98.97C25.1991 102.453 11.2261 96.5845 5.41484 87.1063C-0.497048 77.4639 -0.883279 67.5848 4.54726 57.7032C9.35622 48.9527 14.5068 40.3895 19.54 31.7631C20.1218 30.7661 20.8378 29.819 21.6271 28.9755C31.4708 18.4545 56.977 16.0307 69.8178 24.9099C61.0113 31.1115 57.711 41.3715 50.8435 48.9974C42.9248 57.7906 33.4714 55.4836 25.5771 50.5891C24.3714 49.8416 23.7012 48.9102 24.037 47.283C25.6133 39.6436 35.7581 32.5674 44.733 33.4062C39.8409 37.6689 34.0571 40.6353 31.5742 46.6812C37.5423 50.7185 42.8116 50.2845 47.0201 44.804C51.3492 39.1664 55.0749 33.0653 59.1007 27.1137C48.4555 22.1396 28.6949 26.1171 23.3841 36.0771C19.1575 44.0037 14.3044 51.5947 10.0209 59.4928C3.51282 71.4927 5.97462 82.3174 17.1383 90.955Z" fill="#50AB49"/>
<path d="M94.8316 46.6914C96.356 62.4586 86.984 81.4028 74.1965 87.4219C73.0432 76.3365 65.1662 68.3234 62.1147 58.1466C59.5525 49.6018 64.9632 39.4515 73.4834 36.181C74.6257 35.7425 75.5976 35.4733 76.7143 36.3605C82.5856 41.0246 83.9564 54.6665 78.6869 61.7169C77.4657 55.2524 78.2937 48.6329 73.9788 43.5717C67.7922 46.3102 65.3856 51.8733 68.1659 58.3864C70.8988 64.7882 74.3528 70.8822 77.5001 77.1305C87.5076 71.0494 92.6022 51.4778 86.9479 41.4042C82.7125 33.8584 78.4088 26.3493 74.0217 18.8908C64.941 3.45261 46.8673 2.00583 35.3222 15.7393C32.7687 18.7769 32.5821 18.8747 27.3879 19.8964C30.1002 6.34981 47.7222 -2.60747 62.251 2.24686C68.0663 4.18984 73.2967 7.24896 76.5528 12.5686C82.1977 21.7908 87.5475 31.1961 92.8806 40.6042C93.8398 42.2964 94.123 44.3718 94.8316 46.6914Z" fill="#50AB49"/>
<path d="M59.8563 74.5759C61.2259 79.1147 63.2827 84.5683 60.1652 87.2271C56.5246 90.3321 50.8944 88.2067 46.4023 86.358C42.3558 84.6926 39.1052 81.9265 36.5613 76.9751C43.1349 79.2961 48.3952 83.285 54.8841 82.3557C56.1057 75.7399 52.53 70.4124 45.6928 69.4984C38.646 68.5564 31.5033 68.3311 24.3427 67.7878C25.5245 80.8117 38.4381 93.8684 50.9065 94.4233C60.2162 94.8376 69.5719 94.9019 78.8808 94.5041C94.9306 93.8183 105.106 77.8881 99.1206 63.023C97.7642 59.6539 97.7728 56.6425 99.0971 53.4187C104.593 57.8362 107.613 67.8594 106.061 76.4205C103.625 89.8691 92.6142 99.633 78.919 100.032C69.2664 100.313 59.5771 100.504 49.9436 99.9929C35.0676 99.2034 27.0925 89.066 20.9976 77.0086C18.3829 71.836 16.8568 66.2798 16.8896 59.5098C26.7943 63.4418 36.5876 62.466 46.0581 63.9693C52.2607 64.9538 57.4675 67.7115 59.8563 74.5759Z" fill="#50AB49"/>
</svg>
